<mxfile host="app.diagrams.net" modified="2023-09-27T13:24:13.347Z" agent="Mozilla/5.0 (Windows NT 10.0; Win64; x64) AppleWebKit/537.36 (KHTML, like Gecko) Chrome/117.0.0.0 Safari/537.36 Edg/117.0.2045.41" version="21.8.2" etag="rmTdxNmZ94KccZla7ONT" type="github">
  <diagram name="Page-1" id="LJPCzSkc8uASNMOOVW5p">
    <mxGraphModel>
      <root>
        <mxCell id="0" />
        <mxCell id="1" parent="0" />
      </root>
    </mxGraphModel>
  </diagram>
</mxfile>
